<svg width="600" height="200" viewBox="0 0 600 200" fill="none" xmlns="http://www.w3.org/2000/svg">
<g clip-path="url(#clip0_8_2)">
<rect width="600" height="200" fill="#334155"/>
<g filter="url(#filter0_d_8_2)">
<path fill-rule="evenodd" clip-rule="evenodd" d="M476.39 -12.3811C490.733 -13.8814 503.373 -31.0469 516.926 -26.1114C530.058 -21.3296 534.091 -3.64936 537.594 9.90582C540.632 21.6609 527.376 36.8962 535.531 45.8772C551.775 63.7669 605.63 54.7055 599.519 78.1054C592.911 103.407 537.687 70.4501 523.398 92.3352C510.168 112.597 551.65 137.193 545.628 160.644C541.52 176.644 517.016 183.324 500.812 180.286C482.739 176.898 471.206 158.763 459.556 144.506C451.517 134.668 446.593 122.68 443.638 110.314C441.522 101.462 453.471 86.4488 444.935 83.3358C416.359 72.9133 378.484 97.132 354.864 77.9365C341.101 66.7513 381.115 52.7833 386.537 35.8764C391.984 18.8932 372.838 -4.32744 385.324 -17.0415C398.122 -30.074 421.232 -18.9403 439.453 -18.0078C452.028 -17.3642 463.867 -11.0712 476.39 -12.3811Z" fill="url(#paint0_linear_8_2)"/>
</g>
<g filter="url(#filter1_d_8_2)">
<path fill-rule="evenodd" clip-rule="evenodd" d="M111.08 -6.55477C119.62 0.89444 119.577 16.6333 129.885 21.3338C140.058 25.9731 151.929 14.3052 162.775 17.0187C174.556 19.966 185.771 27.0983 192.735 37.0578C199.939 47.3615 205.244 61.0287 202.051 73.1931C198.779 85.661 187.792 96.0982 175.926 101.104C164.058 106.11 145.943 90.4069 137.719 100.33C125.71 114.822 144.284 142.792 130.64 155.752C121.145 164.771 107.412 143.916 94.5875 141.3C81.6299 138.658 62.1104 151.786 55.3604 140.401C46.6512 125.712 71.203 106.254 64.4954 90.5474C58.9105 77.47 35.9062 83.0811 26.3765 72.5335C16.336 61.4204 2.0317 43.2018 10.6505 30.9506C21.0313 16.1947 50.9126 33.6682 63.0845 20.3546C75.1048 7.20693 52.9078 -23.5512 68.4409 -32.2601C83.0762 -40.4657 98.4321 -17.5864 111.08 -6.55477Z" fill="url(#paint1_linear_8_2)"/>
</g>
<g filter="url(#filter2_d_8_2)">
<path d="M206.22 170.08C207.073 170.08 207.827 170.253 208.48 170.6C209.147 170.933 209.667 171.453 210.04 172.16C210.427 172.853 210.62 173.747 210.62 174.84V181H207.5V175.32C207.5 174.453 207.32 173.813 206.96 173.4C206.6 172.987 206.093 172.78 205.44 172.78C204.987 172.78 204.58 172.887 204.22 173.1C203.86 173.3 203.58 173.607 203.38 174.02C203.18 174.433 203.08 174.96 203.08 175.6V181H199.96V175.32C199.96 174.453 199.78 173.813 199.42 173.4C199.073 172.987 198.573 172.78 197.92 172.78C197.467 172.78 197.06 172.887 196.7 173.1C196.34 173.3 196.06 173.607 195.86 174.02C195.66 174.433 195.56 174.96 195.56 175.6V181H192.44V170.24H195.42V173.18L194.86 172.32C195.233 171.587 195.76 171.033 196.44 170.66C197.133 170.273 197.92 170.08 198.8 170.08C199.787 170.08 200.647 170.333 201.38 170.84C202.127 171.333 202.62 172.093 202.86 173.12L201.76 172.82C202.12 171.98 202.693 171.313 203.48 170.82C204.28 170.327 205.193 170.08 206.22 170.08ZM220.017 181V178.9L219.817 178.44V174.68C219.817 174.013 219.61 173.493 219.197 173.12C218.797 172.747 218.177 172.56 217.337 172.56C216.763 172.56 216.197 172.653 215.637 172.84C215.09 173.013 214.623 173.253 214.237 173.56L213.117 171.38C213.703 170.967 214.41 170.647 215.237 170.42C216.063 170.193 216.903 170.08 217.757 170.08C219.397 170.08 220.67 170.467 221.577 171.24C222.483 172.013 222.937 173.22 222.937 174.86V181H220.017ZM216.737 181.16C215.897 181.16 215.177 181.02 214.577 180.74C213.977 180.447 213.517 180.053 213.197 179.56C212.877 179.067 212.717 178.513 212.717 177.9C212.717 177.26 212.87 176.7 213.177 176.22C213.497 175.74 213.997 175.367 214.677 175.1C215.357 174.82 216.243 174.68 217.337 174.68H220.197V176.5H217.677C216.943 176.5 216.437 176.62 216.157 176.86C215.89 177.1 215.757 177.4 215.757 177.76C215.757 178.16 215.91 178.48 216.217 178.72C216.537 178.947 216.97 179.06 217.517 179.06C218.037 179.06 218.503 178.94 218.917 178.7C219.33 178.447 219.63 178.08 219.817 177.6L220.297 179.04C220.07 179.733 219.657 180.26 219.057 180.62C218.457 180.98 217.683 181.16 216.737 181.16ZM230.458 181.16C229.445 181.16 228.532 180.933 227.718 180.48C226.905 180.013 226.258 179.367 225.778 178.54C225.312 177.713 225.078 176.74 225.078 175.62C225.078 174.487 225.312 173.507 225.778 172.68C226.258 171.853 226.905 171.213 227.718 170.76C228.532 170.307 229.445 170.08 230.458 170.08C231.365 170.08 232.158 170.28 232.838 170.68C233.518 171.08 234.045 171.687 234.418 172.5C234.792 173.313 234.978 174.353 234.978 175.62C234.978 176.873 234.798 177.913 234.438 178.74C234.078 179.553 233.558 180.16 232.878 180.56C232.212 180.96 231.405 181.16 230.458 181.16ZM230.998 178.6C231.505 178.6 231.965 178.48 232.378 178.24C232.792 178 233.118 177.66 233.358 177.22C233.612 176.767 233.738 176.233 233.738 175.62C233.738 174.993 233.612 174.46 233.358 174.02C233.118 173.58 232.792 173.24 232.378 173C231.965 172.76 231.505 172.64 230.998 172.64C230.478 172.64 230.012 172.76 229.598 173C229.185 173.24 228.852 173.58 228.598 174.02C228.358 174.46 228.238 174.993 228.238 175.62C228.238 176.233 228.358 176.767 228.598 177.22C228.852 177.66 229.185 178 229.598 178.24C230.012 178.48 230.478 178.6 230.998 178.6ZM233.818 181V178.8L233.878 175.6L233.678 172.42V166.16H236.798V181H233.818ZM245.026 181.16C243.799 181.16 242.719 180.92 241.786 180.44C240.866 179.96 240.153 179.307 239.646 178.48C239.139 177.64 238.886 176.687 238.886 175.62C238.886 174.54 239.133 173.587 239.626 172.76C240.133 171.92 240.819 171.267 241.686 170.8C242.553 170.32 243.533 170.08 244.626 170.08C245.679 170.08 246.626 170.307 247.466 170.76C248.319 171.2 248.993 171.84 249.486 172.68C249.979 173.507 250.226 174.5 250.226 175.66C250.226 175.78 250.219 175.92 250.206 176.08C250.193 176.227 250.179 176.367 250.166 176.5H241.426V174.68H248.526L247.326 175.22C247.326 174.66 247.213 174.173 246.986 173.76C246.759 173.347 246.446 173.027 246.046 172.8C245.646 172.56 245.179 172.44 244.646 172.44C244.113 172.44 243.639 172.56 243.226 172.8C242.826 173.027 242.513 173.353 242.286 173.78C242.059 174.193 241.946 174.687 241.946 175.26V175.74C241.946 176.327 242.073 176.847 242.326 177.3C242.593 177.74 242.959 178.08 243.426 178.32C243.906 178.547 244.466 178.66 245.106 178.66C245.679 178.66 246.179 178.573 246.606 178.4C247.046 178.227 247.446 177.967 247.806 177.62L249.466 179.42C248.973 179.98 248.353 180.413 247.606 180.72C246.859 181.013 245.999 181.16 245.026 181.16ZM264.327 181.16C263.381 181.16 262.567 180.96 261.887 180.56C261.207 180.16 260.687 179.553 260.327 178.74C259.967 177.913 259.787 176.873 259.787 175.62C259.787 174.353 259.974 173.313 260.347 172.5C260.734 171.687 261.267 171.08 261.947 170.68C262.627 170.28 263.421 170.08 264.327 170.08C265.341 170.08 266.247 170.307 267.047 170.76C267.861 171.213 268.501 171.853 268.967 172.68C269.447 173.507 269.687 174.487 269.687 175.62C269.687 176.74 269.447 177.713 268.967 178.54C268.501 179.367 267.861 180.013 267.047 180.48C266.247 180.933 265.341 181.16 264.327 181.16ZM257.967 181V166.16H261.087V172.42L260.887 175.6L260.947 178.8V181H257.967ZM263.787 178.6C264.307 178.6 264.767 178.48 265.167 178.24C265.581 178 265.907 177.66 266.147 177.22C266.401 176.767 266.527 176.233 266.527 175.62C266.527 174.993 266.401 174.46 266.147 174.02C265.907 173.58 265.581 173.24 265.167 173C264.767 172.76 264.307 172.64 263.787 172.64C263.267 172.64 262.801 172.76 262.387 173C261.974 173.24 261.647 173.58 261.407 174.02C261.167 174.46 261.047 174.993 261.047 175.62C261.047 176.233 261.167 176.767 261.407 177.22C261.647 177.66 261.974 178 262.387 178.24C262.801 178.48 263.267 178.6 263.787 178.6ZM272.843 185.04C272.283 185.04 271.73 184.953 271.183 184.78C270.636 184.607 270.19 184.367 269.843 184.06L270.983 181.84C271.223 182.053 271.496 182.22 271.803 182.34C272.123 182.46 272.436 182.52 272.743 182.52C273.183 182.52 273.53 182.413 273.783 182.2C274.05 182 274.29 181.66 274.503 181.18L275.063 179.86L275.303 179.52L279.163 170.24H282.163L277.303 181.66C276.956 182.527 276.556 183.207 276.103 183.7C275.663 184.193 275.17 184.54 274.623 184.74C274.09 184.94 273.496 185.04 272.843 185.04ZM274.683 181.42L269.883 170.24H273.103L276.823 179.24L274.683 181.42ZM289.32 181V167H292L297.96 176.88H296.54L302.4 167H305.06L305.1 181H302.06L302.04 171.66H302.6L297.92 179.52H296.46L291.68 171.66H292.36V181H289.32ZM314.802 181V178.9L314.602 178.44V174.68C314.602 174.013 314.395 173.493 313.982 173.12C313.582 172.747 312.962 172.56 312.122 172.56C311.548 172.56 310.982 172.653 310.422 172.84C309.875 173.013 309.408 173.253 309.022 173.56L307.902 171.38C308.488 170.967 309.195 170.647 310.022 170.42C310.848 170.193 311.688 170.08 312.542 170.08C314.182 170.08 315.455 170.467 316.362 171.24C317.268 172.013 317.722 173.22 317.722 174.86V181H314.802ZM311.522 181.16C310.682 181.16 309.962 181.02 309.362 180.74C308.762 180.447 308.302 180.053 307.982 179.56C307.662 179.067 307.502 178.513 307.502 177.9C307.502 177.26 307.655 176.7 307.962 176.22C308.282 175.74 308.782 175.367 309.462 175.1C310.142 174.82 311.028 174.68 312.122 174.68H314.982V176.5H312.462C311.728 176.5 311.222 176.62 310.942 176.86C310.675 177.1 310.542 177.4 310.542 177.76C310.542 178.16 310.695 178.48 311.002 178.72C311.322 178.947 311.755 179.06 312.302 179.06C312.822 179.06 313.288 178.94 313.702 178.7C314.115 178.447 314.415 178.08 314.602 177.6L315.082 179.04C314.855 179.733 314.442 180.26 313.842 180.62C313.242 180.98 312.468 181.16 311.522 181.16ZM319.185 181L324.005 174.68L323.945 176.4L319.325 170.24H322.825L325.745 174.26L324.425 174.3L327.445 170.24H330.765L326.125 176.34V174.66L330.925 181H327.385L324.325 176.72L325.625 176.9L322.585 181H319.185ZM332.44 181V170.24H335.56V181H332.44ZM334 168.74C333.427 168.74 332.96 168.573 332.6 168.24C332.24 167.907 332.06 167.493 332.06 167C332.06 166.507 332.24 166.093 332.6 165.76C332.96 165.427 333.427 165.26 334 165.26C334.573 165.26 335.04 165.42 335.4 165.74C335.76 166.047 335.94 166.447 335.94 166.94C335.94 167.46 335.76 167.893 335.4 168.24C335.053 168.573 334.587 168.74 334 168.74ZM352.236 170.08C353.089 170.08 353.842 170.253 354.496 170.6C355.162 170.933 355.682 171.453 356.056 172.16C356.442 172.853 356.636 173.747 356.636 174.84V181H353.516V175.32C353.516 174.453 353.336 173.813 352.976 173.4C352.616 172.987 352.109 172.78 351.456 172.78C351.002 172.78 350.596 172.887 350.236 173.1C349.876 173.3 349.596 173.607 349.396 174.02C349.196 174.433 349.096 174.96 349.096 175.6V181H345.976V175.32C345.976 174.453 345.796 173.813 345.436 173.4C345.089 172.987 344.589 172.78 343.936 172.78C343.482 172.78 343.076 172.887 342.716 173.1C342.356 173.3 342.076 173.607 341.876 174.02C341.676 174.433 341.576 174.96 341.576 175.6V181H338.456V170.24H341.436V173.18L340.876 172.32C341.249 171.587 341.776 171.033 342.456 170.66C343.149 170.273 343.936 170.08 344.816 170.08C345.802 170.08 346.662 170.333 347.396 170.84C348.142 171.333 348.636 172.093 348.876 173.12L347.776 172.82C348.136 171.98 348.709 171.313 349.496 170.82C350.296 170.327 351.209 170.08 352.236 170.08ZM369.916 181.24C368.796 181.24 367.723 181.093 366.696 180.8C365.67 180.493 364.843 180.1 364.216 179.62L365.316 177.18C365.916 177.607 366.623 177.96 367.436 178.24C368.263 178.507 369.096 178.64 369.936 178.64C370.576 178.64 371.09 178.58 371.476 178.46C371.876 178.327 372.17 178.147 372.356 177.92C372.543 177.693 372.636 177.433 372.636 177.14C372.636 176.767 372.49 176.473 372.196 176.26C371.903 176.033 371.516 175.853 371.036 175.72C370.556 175.573 370.023 175.44 369.436 175.32C368.863 175.187 368.283 175.027 367.696 174.84C367.123 174.653 366.596 174.413 366.116 174.12C365.636 173.827 365.243 173.44 364.936 172.96C364.643 172.48 364.496 171.867 364.496 171.12C364.496 170.32 364.71 169.593 365.136 168.94C365.576 168.273 366.23 167.747 367.096 167.36C367.976 166.96 369.076 166.76 370.396 166.76C371.276 166.76 372.143 166.867 372.996 167.08C373.85 167.28 374.603 167.587 375.256 168L374.256 170.46C373.603 170.087 372.95 169.813 372.296 169.64C371.643 169.453 371.003 169.36 370.376 169.36C369.75 169.36 369.236 169.433 368.836 169.58C368.436 169.727 368.15 169.92 367.976 170.16C367.803 170.387 367.716 170.653 367.716 170.96C367.716 171.32 367.863 171.613 368.156 171.84C368.45 172.053 368.836 172.227 369.316 172.36C369.796 172.493 370.323 172.627 370.896 172.76C371.483 172.893 372.063 173.047 372.636 173.22C373.223 173.393 373.756 173.627 374.236 173.92C374.716 174.213 375.103 174.6 375.396 175.08C375.703 175.56 375.856 176.167 375.856 176.9C375.856 177.687 375.636 178.407 375.196 179.06C374.756 179.713 374.096 180.24 373.216 180.64C372.35 181.04 371.25 181.24 369.916 181.24ZM383.19 181.16C381.963 181.16 380.883 180.92 379.95 180.44C379.03 179.96 378.317 179.307 377.81 178.48C377.303 177.64 377.05 176.687 377.05 175.62C377.05 174.54 377.297 173.587 377.79 172.76C378.297 171.92 378.983 171.267 379.85 170.8C380.717 170.32 381.697 170.08 382.79 170.08C383.843 170.08 384.79 170.307 385.63 170.76C386.483 171.2 387.157 171.84 387.65 172.68C388.143 173.507 388.39 174.5 388.39 175.66C388.39 175.78 388.383 175.92 388.37 176.08C388.357 176.227 388.343 176.367 388.33 176.5H379.59V174.68H386.69L385.49 175.22C385.49 174.66 385.377 174.173 385.15 173.76C384.923 173.347 384.61 173.027 384.21 172.8C383.81 172.56 383.343 172.44 382.81 172.44C382.277 172.44 381.803 172.56 381.39 172.8C380.99 173.027 380.677 173.353 380.45 173.78C380.223 174.193 380.11 174.687 380.11 175.26V175.74C380.11 176.327 380.237 176.847 380.49 177.3C380.757 177.74 381.123 178.08 381.59 178.32C382.07 178.547 382.63 178.66 383.27 178.66C383.843 178.66 384.343 178.573 384.77 178.4C385.21 178.227 385.61 177.967 385.97 177.62L387.63 179.42C387.137 179.98 386.517 180.413 385.77 180.72C385.023 181.013 384.163 181.16 383.19 181.16ZM390.467 181V170.24H393.587V181H390.467ZM392.027 168.74C391.454 168.74 390.987 168.573 390.627 168.24C390.267 167.907 390.087 167.493 390.087 167C390.087 166.507 390.267 166.093 390.627 165.76C390.987 165.427 391.454 165.26 392.027 165.26C392.601 165.26 393.067 165.42 393.427 165.74C393.787 166.047 393.967 166.447 393.967 166.94C393.967 167.46 393.787 167.893 393.427 168.24C393.081 168.573 392.614 168.74 392.027 168.74ZM403.023 170.08C403.876 170.08 404.636 170.253 405.303 170.6C405.983 170.933 406.516 171.453 406.903 172.16C407.29 172.853 407.483 173.747 407.483 174.84V181H404.363V175.32C404.363 174.453 404.17 173.813 403.783 173.4C403.41 172.987 402.876 172.78 402.183 172.78C401.69 172.78 401.243 172.887 400.843 173.1C400.456 173.3 400.15 173.613 399.923 174.04C399.71 174.467 399.603 175.013 399.603 175.68V181H396.483V170.24H399.463V173.22L398.903 172.32C399.29 171.6 399.843 171.047 400.563 170.66C401.283 170.273 402.103 170.08 403.023 170.08Z" fill="#BCBCBC"/>
</g>
</g>
<defs>
<filter id="filter0_d_8_2" x="352" y="-27" width="256" height="216" filterUnits="userSpaceOnUse" color-interpolation-filters="sRGB">
<feFlood flood-opacity="0" result="BackgroundImageFix"/>
<feColorMatrix in="SourceAlpha" type="matrix" values="0 0 0 0 0 0 0 0 0 0 0 0 0 0 0 0 0 0 127 0" result="hardAlpha"/>
<feOffset dx="4" dy="4"/>
<feGaussianBlur stdDeviation="2"/>
<feComposite in2="hardAlpha" operator="out"/>
<feColorMatrix type="matrix" values="0 0 0 0 0 0 0 0 0 0 0 0 0 0 0 0 0 0 0.25 0"/>
<feBlend mode="normal" in2="BackgroundImageFix" result="effect1_dropShadow_8_2"/>
<feBlend mode="normal" in="SourceGraphic" in2="effect1_dropShadow_8_2" result="shape"/>
</filter>
<filter id="filter1_d_8_2" x="4" y="-34" width="203" height="200" filterUnits="userSpaceOnUse" color-interpolation-filters="sRGB">
<feFlood flood-opacity="0" result="BackgroundImageFix"/>
<feColorMatrix in="SourceAlpha" type="matrix" values="0 0 0 0 0 0 0 0 0 0 0 0 0 0 0 0 0 0 127 0" result="hardAlpha"/>
<feOffset dy="4"/>
<feGaussianBlur stdDeviation="2"/>
<feComposite in2="hardAlpha" operator="out"/>
<feColorMatrix type="matrix" values="0 0 0 0 0 0 0 0 0 0 0 0 0 0 0 0 0 0 0.25 0"/>
<feBlend mode="normal" in2="BackgroundImageFix" result="effect1_dropShadow_8_2"/>
<feBlend mode="normal" in="SourceGraphic" in2="effect1_dropShadow_8_2" result="shape"/>
</filter>
<filter id="filter2_d_8_2" x="188.44" y="165.26" width="223.043" height="27.78" filterUnits="userSpaceOnUse" color-interpolation-filters="sRGB">
<feFlood flood-opacity="0" result="BackgroundImageFix"/>
<feColorMatrix in="SourceAlpha" type="matrix" values="0 0 0 0 0 0 0 0 0 0 0 0 0 0 0 0 0 0 127 0" result="hardAlpha"/>
<feOffset dy="4"/>
<feGaussianBlur stdDeviation="2"/>
<feComposite in2="hardAlpha" operator="out"/>
<feColorMatrix type="matrix" values="0 0 0 0 0 0 0 0 0 0 0 0 0 0 0 0 0 0 0.25 0"/>
<feBlend mode="normal" in2="BackgroundImageFix" result="effect1_dropShadow_8_2"/>
<feBlend mode="normal" in="SourceGraphic" in2="effect1_dropShadow_8_2" result="shape"/>
</filter>
<linearGradient id="paint0_linear_8_2" x1="391.5" y1="-15.5" x2="541" y2="166.5" gradientUnits="userSpaceOnUse">
<stop stop-color="#0F172A"/>
<stop offset="1" stop-color="#020617"/>
</linearGradient>
<linearGradient id="paint1_linear_8_2" x1="105.5" y1="-34" x2="105.5" y2="158" gradientUnits="userSpaceOnUse">
<stop stop-color="#1E293B"/>
<stop offset="1" stop-color="#020617"/>
</linearGradient>
<clipPath id="clip0_8_2">
<rect width="600" height="200" fill="white"/>
</clipPath>
</defs>
</svg>
